Coordinates
version=1
nRows=13
nColumns=63
inDegrees=yes

Units are S.I. units (second, meters, Newtons, ...)
If the header above contains a line with 'inDegrees', this indicates whether rotational values are in degrees (yes) or radians (no).

endheader
time	pelvis_tilt	pelvis_list	pelvis_rotation	pelvis_tx	pelvis_ty	pelvis_tz	hip_flexion_r	hip_adduction_r	hip_rotation_r	knee_angle_r	knee_angle_r_beta	ankle_angle_r	subtalar_angle_r	mtp_angle_r	hip_flexion_l	hip_adduction_l	hip_rotation_l	knee_angle_l	knee_angle_l_beta	ankle_angle_l	subtalar_angle_l	mtp_angle_l	L5_S1_Flex_Ext	L5_S1_Lat_Bending	L5_S1_axial_rotation	L4_L5_Flex_Ext	L4_L5_Lat_Bending	L4_L5_axial_rotation	L3_L4_Flex_Ext	L3_L4_Lat_Bending	L3_L4_axial_rotation	L2_L3_Flex_Ext	L2_L3_Lat_Bending	L2_L3_axial_rotation	L1_L2_Flex_Ext	L1_L2_Lat_Bending	L1_L2_axial_rotation	L1_T12_Flex_Ext	L1_T12_Lat_Bending	L1_T12_axial_rotation	Abs_r3	Abs_r2	Abs_r1	Abs_t1	Abs_t2	neck_flexion	neck_bending	neck_rotation	arm_flex_r	arm_add_r	arm_rot_r	elbow_flex_r	pro_sup_r	wrist_flex_r	wrist_dev_r	arm_flex_l	arm_add_l	arm_rot_l	elbow_flex_l	pro_sup_l	wrist_flex_l	wrist_dev_l
1.107143	-2.296150	-2.812008	81.669081	0.197129	0.935303	0.518838	13.944059	-0.175844	-3.403630	15.129099	0.264053	25.055164	-10.935721	0.000000	7.014104	0.452466	10.828352	0.685562	0.011965	21.792096	-6.143789	0.000000	0.080504	-0.451739	1.755164	0.149504	-0.600812	1.864862	0.132260	-1.098357	1.864862	0.092008	-1.098357	1.535769	0.074756	-0.921185	1.426071	0.046000	-0.699743	1.316373	0.575032	-5.110157	9.761698	0.000000	0.000000	17.951423	4.704979	-3.525994	-10.148840	-12.939587	10.405576	59.733271	77.230266	-11.723527	3.069546	9.354508	-11.642905	188.198062	-0.614145	40.135903	-16.593922	12.177487
1.125000	-2.328577	-2.890634	81.367598	0.197669	0.935081	0.519599	14.230643	-0.083607	-2.818270	15.322707	0.267432	25.197004	-11.072375	0.000000	7.093006	0.412289	10.880841	0.637250	0.011122	21.811865	-6.487117	0.000000	0.082542	-0.456569	1.821617	0.153289	-0.607236	1.935468	0.135609	-1.110101	1.935468	0.094338	-1.110101	1.593915	0.076649	-0.931035	1.480064	0.047165	-0.707225	1.366212	0.589591	-5.164795	10.131285	0.000000	0.000000	18.078538	4.749729	-3.599415	-9.844365	-12.884893	10.071965	59.779017	77.382747	-11.852536	3.204933	9.502496	-11.766813	186.216469	-0.169439	44.377456	-16.435649	13.310364
1.142857	-2.280038	-2.951820	81.158624	0.197969	0.934826	0.520361	14.464489	0.065216	-2.310976	15.477676	0.270136	25.294472	-11.228387	0.000000	7.145909	0.312620	11.174078	0.584583	0.010203	21.819276	-7.098052	0.000000	0.082074	-0.450094	1.865443	0.152419	-0.598626	1.982033	0.134839	-1.094359	1.982033	0.093802	-1.094359	1.632262	0.076214	-0.917832	1.515672	0.046897	-0.697196	1.399082	0.586246	-5.091558	10.375032	0.000000	0.000000	18.154440	4.714533	-3.627697	-9.431590	-12.829412	9.698246	59.562865	77.722632	-11.845541	3.445776	9.614546	-12.021767	180.626282	0.754617	50.441021	-16.571797	14.210290
1.160714	-2.160769	-3.016584	81.031105	0.198023	0.934563	0.521085	14.669994	0.260097	-1.877823	15.600776	0.272285	25.335890	-11.422496	0.000000	7.196094	0.162837	11.529864	0.537449	0.009380	21.844126	-7.751439	0.000000	0.082051	-0.432441	1.887559	0.152377	-0.575147	2.005531	0.134802	-1.051437	2.005531	0.093776	-1.051437	1.651614	0.076193	-0.881834	1.533642	0.046884	-0.669851	1.415669	0.586084	-4.891859	10.498036	0.000000	0.000000	18.188602	4.619548	-3.559292	-8.960173	-12.768472	9.237323	59.201708	78.255609	-11.709584	3.811068	9.820163	-11.938797	179.353759	0.753292	51.303606	-16.635365	14.337814
1.178571	-1.987283	-3.081985	81.031813	0.197865	0.934278	0.521782	14.839133	0.472675	-1.622073	15.688350	0.273813	25.345501	-11.582038	0.000000	7.268581	-0.023091	11.706290	0.532350	0.009291	21.972943	-8.072290	0.000000	0.081981	-0.408243	1.882337	0.152247	-0.542963	1.999983	0.134687	-0.992602	1.999983	0.093696	-0.992602	1.647045	0.076128	-0.832489	1.529399	0.046844	-0.632369	1.411753	0.585584	-4.618128	10.468992	0.000000	0.000000	18.211728	4.494328	-3.481807	-8.471932	-12.694050	8.718251	58.817642	78.916644	-11.495343	4.253038	10.019158	-11.883912	177.813008	0.757402	51.116327	-16.993487	14.058855
1.196429	-1.814387	-3.133537	81.131589	0.197560	0.934036	0.522428	14.972191	0.644802	-1.548554	15.766866	0.275184	25.355492	-11.635454	0.000000	7.342024	-0.190100	11.653094	0.550390	0.009606	22.163317	-8.069077	0.000000	0.081152	-0.384846	1.857435	0.150708	-0.511845	1.973525	0.133325	-0.935715	1.973525	0.092749	-0.935715	1.625256	0.075358	-0.784778	1.509166	0.046370	-0.596127	1.393076	0.579663	-4.353457	10.330497	0.000000	0.000000	18.197698	4.405832	-3.388310	-7.997636	-12.614578	8.193613	58.476128	79.617922	-11.145357	4.638786	10.238843	-11.855160	176.257777	0.752238	50.488440	-17.463259	13.734015
1.214286	-1.633941	-3.182297	81.363120	0.197098	0.933845	0.523021	15.066226	0.788379	-1.642775	15.806919	0.275883	25.353264	-11.658233	0.000000	7.445331	-0.345744	11.419062	0.608689	0.010624	22.412660	-7.759538	0.000000	0.080619	-0.361865	1.808583	0.149718	-0.481281	1.921619	0.132449	-0.879839	1.921619	0.092139	-0.879839	1.582510	0.074863	-0.737916	1.469473	0.046066	-0.560529	1.356437	0.575854	-4.093493	10.058794	0.000000	0.000000	18.179918	4.356185	-3.306380	-7.581891	-12.543996	7.672188	58.309971	80.400094	-10.819740	5.053505	10.461348	-11.854788	174.684190	0.743692	49.259449	-18.018714	13.166816
1.232143	-1.432836	-3.226547	81.701812	0.196505	0.933747	0.523542	15.108771	0.924714	-1.873419	15.779925	0.275412	25.328997	-11.639550	0.000000	7.575788	-0.506740	11.018227	0.704089	0.012289	22.714727	-7.186867	0.000000	0.080745	-0.338161	1.744170	0.149951	-0.449754	1.853181	0.132656	-0.822205	1.853181	0.092283	-0.822205	1.526149	0.074980	-0.689578	1.417138	0.046138	-0.523811	1.308127	0.576752	-3.825345	9.700550	0.000000	0.000000	18.172243	4.336151	-3.305755	-7.265138	-12.524481	7.171392	58.412246	81.171133	-10.539302	5.537512	10.688020	-11.858886	173.093739	0.732193	47.576201	-18.630386	12.400322
1.250000	-1.216871	-3.268124	82.152705	0.195777	0.933768	0.524005	15.104969	1.052031	-2.192228	15.684154	0.273740	25.275223	-11.629675	0.000000	7.738930	-0.665212	10.529290	0.833531	0.014548	23.024393	-6.438876	0.000000	0.082075	-0.314752	1.664078	0.152421	-0.418620	1.768082	0.134841	-0.765288	1.768082	0.093804	-0.765288	1.456068	0.076215	-0.641842	1.352063	0.046898	-0.487551	1.248058	0.586253	-3.560536	9.255100	0.000000	0.000000	18.172408	4.340436	-3.416918	-7.054713	-12.593342	6.727566	58.833435	81.878003	-10.300317	6.128781	10.918833	-11.861970	171.449062	0.717954	45.592053	-19.388181	11.416928
1.267857	-0.996975	-3.305123	82.724840	0.194885	0.933913	0.524410	15.048642	1.145099	-2.718733	15.517302	0.270828	25.254060	-11.479486	0.000000	7.937833	-0.810354	9.892515	1.007291	0.017581	23.354079	-5.384565	0.000000	0.084169	-0.292205	1.564209	0.156309	-0.388633	1.661972	0.138280	-0.710467	1.661972	0.096196	-0.710467	1.368683	0.078159	-0.595864	1.270920	0.048094	-0.452625	1.173157	0.601207	-3.305480	8.699661	0.000000	0.000000	18.190491	4.364167	-3.574894	-6.946410	-12.785350	6.395109	59.592568	82.480055	-10.135267	6.747900	11.141747	-11.868257	169.800804	0.704074	42.953464	-20.309027	10.059385
1.285714	-0.770044	-3.335141	83.401304	0.193833	0.934198	0.524769	14.941238	1.208873	-3.425868	15.283440	0.266746	25.231342	-11.197345	0.000000	8.167771	-0.945821	9.136164	1.231074	0.021486	23.672025	-4.068143	0.000000	0.086624	-0.270323	1.449800	0.160869	-0.359530	1.540412	0.142314	-0.657264	1.540412	0.099002	-0.657264	1.268575	0.080439	-0.551244	1.177962	0.049497	-0.418731	1.087350	0.618746	-3.057953	8.063350	0.000000	0.000000	18.192100	4.394467	-3.843821	-6.937108	-13.137349	6.187640	60.685572	83.017565	-9.960132	7.403944	11.370540	-11.863679	168.241330	0.686795	39.777662	-21.378553	8.400525
1.303571	-0.530373	-3.373424	84.146796	0.192644	0.934564	0.525094	14.814519	1.260013	-4.271852	15.008996	0.261956	25.211574	-10.821764	0.000000	8.438828	-1.081807	8.317113	1.503145	0.026235	23.990776	-2.556199	0.000000	0.090726	-0.247109	1.327265	0.168488	-0.328655	1.410219	0.149054	-0.600820	1.410219	0.103691	-0.600820	1.161357	0.084249	-0.503904	1.078403	0.051841	-0.382771	0.995449	0.648050	-2.795344	7.381852	0.000000	0.000000	18.195963	4.426763	-4.138417	-7.015106	-13.664949	6.141868	62.075928	83.422664	-9.848955	7.978411	11.592273	-11.827570	166.751246	0.671750	36.161066	-22.628154	6.493660
1.321429	-0.300712	-3.410911	84.959538	0.191355	0.935018	0.525356	14.652231	1.276910	-5.234748	14.685601	0.256312	25.199886	-10.349273	0.000000	8.734157	-1.195195	7.469519	1.812001	0.031625	24.310298	-0.878369	0.000000	0.094961	-0.225815	1.195677	0.176352	-0.300334	1.270407	0.156011	-0.549046	1.270407	0.108531	-0.549046	1.046218	0.088181	-0.460482	0.971488	0.054261	-0.349787	0.896758	0.678297	-2.554463	6.649999	0.000000	0.000000	18.171752	4.452478	-4.497594	-7.136950	-14.335531	6.261562	63.647568	83.786618	-9.735406	8.460892	11.806881	-11.772174	165.397412	0.653824	32.162656	-23.985178	4.378426
